Coordinates
version=1
nRows=19
nColumns=24
inDegrees=yes

Units are S.I. units (second, meters, Newtons, ...)
Angles are in degrees.

endheader
time	pelvis_tilt	pelvis_list	pelvis_rotation	pelvis_tx	pelvis_ty	pelvis_tz	hip_flexion_r	hip_adduction_r	hip_rotation_r	knee_angle_r	ankle_angle_r	subtalar_angle_r	mtp_angle_r	hip_flexion_l	hip_adduction_l	hip_rotation_l	knee_angle_l	ankle_angle_l	subtalar_angle_l	mtp_angle_l	lumbar_extension	lumbar_bending	lumbar_rotation
      2.59500000	     13.50419641	      2.71125425	     -4.62280306	      0.66198357	      0.94507919	      0.01487465	    -16.72976934	    -10.28885873	     -6.47208661	    -39.62396884	     17.70322855	     30.03909031	     47.31381620	      0.81206240	      3.80558154	     -7.41165561	    -12.82332421	      4.82094138	     11.07203265	     21.43394298	    -24.24757023	     -4.05779558	      2.99015330
      2.60000000	     13.58964021	      2.73588264	     -4.60216333	      0.66656559	      0.94597822	      0.01427776	    -16.30202167	    -10.43961327	     -6.35571758	    -40.84020560	     16.47677180	     29.74386657	     47.39191901	      0.36430929	      3.86429315	     -7.58961182	    -12.75381185	      5.09761993	     11.58675993	     21.28633458	    -24.32426521	     -4.17258911	      2.89798306
      2.60500000	     13.67938281	      2.73078464	     -4.57348888	      0.67111527	      0.94692520	      0.01374418	    -15.87331654	    -10.53600724	     -6.24537824	    -42.00227193	     15.14063271	     29.10454569	     49.97626891	     -0.10709840	      3.88367082	     -7.79158489	    -12.66670733	      5.52694386	     12.26257116	     18.75456615	    -24.41045632	     -4.25812219	      2.82417116
      2.61000000	     13.78661726	      2.69923861	     -4.54664122	      0.67562612	      0.94793717	      0.01326603	    -15.45887299	    -10.58368403	     -6.09551438	    -43.14842594	     14.03974012	     28.44275211	     49.88796895	     -0.63968366	      3.88251955	     -7.98155374	    -12.46704493	      5.68068795	     12.69546313	     18.69872070	    -24.51913881	     -4.31828207	      2.74972450
      2.61500000	     13.91347420	      2.63716480	     -4.53276984	      0.68012812	      0.94895966	      0.01287407	    -15.05984638	    -10.59057748	     -5.93547695	    -44.25913686	     13.03186331	     27.66747002	     49.88813717	     -1.20418325	      3.83799089	     -8.26531118	    -12.26608629	      5.98000787	     13.35844212	     18.38922471	    -24.65121720	     -4.35509608	      2.69635209
      2.62000000	     14.02887620	      2.59855404	     -4.52983548	      0.68458547	      0.94996935	      0.01248843	    -14.62611712	    -10.61691357	     -5.79036773	    -45.37162397	     12.21536413	     26.64880204	     49.79566822	     -1.79783510	      3.83683654	     -8.47910071	    -11.94951879	      6.11491495	     13.77691204	     18.23648420	    -24.77068251	     -4.41579717	      2.65151405
      2.62500000	     14.17375974	      2.50330212	     -4.52773741	      0.68902691	      0.95103691	      0.01223341	    -14.23393230	    -10.56564460	     -5.64249031	    -46.41107868	     11.45551688	     25.56332852	     49.63413605	     -2.41375758	      3.75711199	     -8.81405308	    -11.68201070	      6.35932814	     14.41552954	     17.88348933	    -24.92641590	     -4.42882324	      2.60151065
      2.63000000	     14.28846810	      2.43116834	     -4.55268228	      0.69341916	      0.95203551	      0.01198178	    -13.77744238	    -10.54776240	     -5.49641128	    -47.47321681	     10.98304546	     24.44687167	     48.00997150	     -3.01748868	      3.70927058	     -9.13217958	    -11.37862172	      6.82636899	     15.20857164	     13.37003426	    -25.04816931	     -4.46621352	      2.59905047
      2.63500000	     14.41234666	      2.34444398	     -4.51798373	      0.69778256	      0.95304323	      0.01165444	    -13.35706890	    -10.49520310	     -5.44704589	    -48.44936164	     10.55419289	     23.06410932	     47.84781303	     -3.65740457	      3.66237083	     -9.31563179	    -10.97381826	      6.90979410	     15.60157579	     13.34710741	    -25.19038072	     -4.46311953	      2.51432579
      2.64000000	     14.54708318	      2.22444302	     -4.52135182	      0.70211294	      0.95406169	      0.01142276	    -12.93548605	    -10.40909698	     -5.36994729	    -49.37675960	     10.21904928	     21.60579138	     47.57945544	     -4.31569306	      3.57938219	     -9.58605124	    -10.56492541	      7.01158366	     16.07089534	     13.29225584	    -25.34467353	     -4.43929058	      2.49661721
      2.64500000	     14.70202857	      2.08918516	     -4.52950636	      0.70643549	      0.95508518	      0.01124994	    -12.53710795	    -10.30844969	     -5.32108513	    -50.24773300	      9.96039977	     20.13342392	     46.97473232	     -4.98892160	      3.47578226	     -9.92839408	    -10.18140722	      7.17697303	     16.66461200	     13.09382262	    -25.52086571	     -4.40451668	      2.46442730
      2.65000000	     14.80382705	      1.97692214	     -4.52732138	      0.71067224	      0.95598857	      0.01099045	    -12.06152353	    -10.23945479	     -5.30765248	    -51.13949177	     10.13045671	     18.87602645	     43.22265400	     -5.61313985	      3.41132819	    -10.13850485	     -9.75617547	      7.35255854	     17.10141527	     11.28773122	    -25.64686224	     -4.37369984	      2.45098064
      2.65500000	     14.90169560	      1.83455111	     -4.52105193	      0.71489277	      0.95689679	      0.01072936	    -11.59209442	    -10.13107081	     -5.32241195	    -51.91004718	     10.06497925	     17.30247703	     43.01825312	     -6.24664490	      3.32325913	    -10.33571183	     -9.29000460	      7.38146220	     17.39394475	     11.22578044	    -25.77149978	     -4.30468378	      2.43419024
      2.66000000	     15.01018697	      1.67671739	     -4.51830685	      0.71907170	      0.95778507	      0.01050260	    -11.13248525	    -10.01027459	     -5.36214446	    -52.62332051	     10.07499826	     15.76207559	     42.70047008	     -6.88087191	      3.21627480	    -10.55009893	     -8.84795783	      7.44048493	     17.74523036	     11.14193349	    -25.91286350	     -4.22067742	      2.43892070
      2.66500000	     15.11535540	      1.53071424	     -4.53677852	      0.72321758	      0.95861551	      0.01030676	    -10.65674437	     -9.91029528	     -5.38736542	    -53.32382168	     10.42290662	     14.56960350	     39.32660098	     -7.49753630	      3.12263534	    -10.81646366	     -8.44311031	      7.65391928	     18.20849250	      9.61449368	    -26.05205133	     -4.15180576	      2.44370986
      2.67000000	     15.18464559	      1.36765564	     -4.50939797	      0.72730332	      0.95939298	      0.01000431	    -10.15265514	     -9.78564131	     -5.48720285	    -53.92063608	     10.53291500	     13.18212013	     39.14268304	     -8.07864301	      3.01729239	    -10.93379517	     -8.00014986	      7.67483717	     18.42036618	      9.55281682	    -26.16184929	     -4.03466976	      2.42101818
      2.67500000	     15.24630136	      1.19285385	     -4.50211367	      0.73136735	      0.96014842	      0.00974438	     -9.63845490	     -9.64993043	     -5.57372518	    -54.44830872	     10.70408009	     11.91422379	     38.87509083	     -8.64337141	      2.89968137	    -11.09237443	     -7.57838532	      7.72664807	     18.66234366	      9.47949213	    -26.26590904	     -3.90874310	      2.42383501
      2.68000000	     15.31894085	      1.01594602	     -4.51748665	      0.73542322	      0.96085700	      0.00953698	     -9.13312534	     -9.52254646	     -5.64965470	    -54.94617168	     11.19391558	     11.08372041	     35.83459665	     -9.20500262	      2.77917636	    -11.31971022	     -7.20203562	      7.90763443	     19.00400142	      8.21289493	    -26.37943127	     -3.78809138	      2.46568619
      2.68500000	     15.34777407	      0.87314310	     -4.48101478	      0.73943163	      0.96147625	      0.00918928	     -8.58653681	     -9.43452280	     -5.82057400	    -55.36309771	     11.49648509	     10.14343993	     35.73469911	     -9.71004607	      2.69784465	    -11.38046174	     -6.80748728	      7.92914612	     19.11356270	      8.17462035	    -26.45304271	     -3.66600329	      2.42538428
